<?xml version="1.0" encoding="utf-8"?>
<!-- Generator: Adobe Illustrator 19.2.1, SVG Export Plug-In . SVG Version: 6.00 Build 0)  -->
<svg version="1.1" id="layer" xmlns="http://www.w3.org/2000/svg" xmlns:xlink="http://www.w3.org/1999/xlink" x="0px" y="0px"
	 viewBox="0 0 652 652" style="enable-background:new 0 0 652 652;" xml:space="preserve">
<style type="text/css">
	.st0{fill:#701B45;}
</style>
<g>
	<g>
		<path class="st0" d="M132.9,291.6L60.6,480H210l72.3-188.4H132.9z M207.9,434.1c-2.6,2.6-5.7,5-9.4,7.3c-3.7,2.3-8,4.2-12.8,5.8
			c-4.8,1.6-10.2,2.4-16,2.4c-8.3,0-15.9-1.5-22.8-4.4c-6.9-2.9-12.8-7-17.7-12.2c-4.9-5.2-8.8-11.4-11.5-18.5
			c-2.8-7.1-4.1-14.9-4.1-23.3c0-8.2,1.4-15.9,4.1-23.1c2.8-7.2,6.6-13.5,11.5-18.9c4.9-5.4,10.9-9.6,17.8-12.7
			c6.9-3.1,14.6-4.6,23-4.6c6,0,11.3,0.7,16,2.2c4.7,1.5,8.9,3.3,12.4,5.5c3.5,2.2,6.6,4.6,9.1,7.2c2.5,2.6,4.6,5.1,6.2,7.4
			l-11.5,9.8c-1.3-1.9-3-3.9-4.8-6c-1.9-2.1-4.1-4-6.7-5.6c-2.6-1.7-5.6-3.1-8.9-4.2c-3.4-1.1-7.2-1.7-11.6-1.7
			c-6.2,0-11.7,1.2-16.6,3.5c-4.9,2.4-9,5.6-12.5,9.6c-3.4,4-6,8.8-7.8,14.2c-1.8,5.4-2.7,11.1-2.7,17.2c0,6.1,0.9,11.8,2.8,17.1
			c1.9,5.3,4.5,10,7.8,13.9c3.4,3.9,7.5,7,12.3,9.3c4.8,2.3,10.2,3.4,16.2,3.4c5.1,0,9.4-0.6,13.1-1.9c3.7-1.3,6.7-2.8,9.3-4.6
			c2.5-1.8,4.6-3.6,6.2-5.5c1.6-1.9,3-3.4,4.1-4.6l11.3,9.4C212.4,429.3,210.5,431.6,207.9,434.1"/>
		<polygon class="st0" points="80.3,383.1 37.6,383.1 37.6,346.5 94.3,346.5 100.2,331 20.3,331 20.3,450.9 37.6,450.9 37.6,398.4 
			74.4,398.4 		"/>
		<path class="st0" d="M284.3,331h16.6l47,119.9h-19.2l-12.4-33.4H269l-12.4,33.4h-18.1L284.3,331z M311,402.9l-18.4-52.7L274,402.9
			H311z"/>
		<polygon class="st0" points="381.7,331 399.7,331 399.7,335.6 387,335.6 387,342.8 396.5,342.8 396.5,347.5 387,347.5 387,358.8 
			381.7,358.8 		"/>
		<rect x="406.6" y="331" class="st0" width="5.3" height="27.9"/>
		<polygon class="st0" points="420,331 425.3,331 438.8,350.8 438.8,331 443.9,331 443.9,358.8 438.8,358.8 425.1,338.8 
			425.1,358.8 420,358.8 		"/>
		<path class="st0" d="M460.5,331h5.4l10.6,27.9h-5.8l-2.4-7.1h-10.4l-2.4,7.1h-5.5L460.5,331z M466.7,347.4l-3.7-10.8l-3.7,10.8
			H466.7z"/>
		<polygon class="st0" points="482.2,331 487.5,331 500.9,350.8 500.9,331 506.1,331 506.1,358.8 500.9,358.8 487.3,338.8 
			487.3,358.8 482.2,358.8 		"/>
		<path class="st0" d="M537.9,353.7c-0.4,0.6-1,1.3-1.7,2c-0.7,0.7-1.6,1.3-2.6,1.9c-1,0.6-2.1,1-3.3,1.4c-1.2,0.4-2.5,0.5-3.8,0.5
			c-2.1,0-4-0.4-5.7-1.1c-1.7-0.7-3.2-1.7-4.5-3c-1.3-1.3-2.2-2.8-2.9-4.6c-0.7-1.8-1-3.7-1-5.8c0-2,0.3-3.9,1-5.7
			c0.7-1.8,1.7-3.3,2.9-4.7c1.3-1.3,2.8-2.4,4.5-3.2c1.8-0.8,3.7-1.2,5.8-1.2c1.4,0,2.6,0.1,3.8,0.4c1.1,0.3,2.2,0.7,3.1,1.2
			c0.9,0.5,1.8,1.1,2.5,1.8c0.7,0.7,1.4,1.4,1.9,2.2l-3.7,3.3c-0.9-1.3-1.9-2.3-3.1-3.1c-1.2-0.8-2.7-1.2-4.4-1.2
			c-1.4,0-2.6,0.3-3.7,0.8c-1.1,0.5-2,1.3-2.8,2.2c-0.8,0.9-1.4,2-1.8,3.2c-0.4,1.2-0.6,2.5-0.6,3.8c0,1.3,0.2,2.6,0.6,3.8
			c0.4,1.2,1,2.2,1.7,3c0.8,0.9,1.6,1.5,2.7,2c1,0.5,2.2,0.8,3.5,0.8c1.2,0,2.2-0.1,3.1-0.4c0.9-0.3,1.6-0.6,2.2-1
			c0.6-0.4,1.1-0.9,1.5-1.3c0.4-0.5,0.8-0.8,1.1-1.2L537.9,353.7z"/>
		<rect x="544.1" y="331" class="st0" width="5.3" height="27.9"/>
		<path class="st0" d="M565.6,331h5.4l10.6,27.9h-5.8l-2.4-7.1H563l-2.4,7.1H555L565.6,331z M571.8,347.4l-3.7-10.8l-3.7,10.8H571.8
			z"/>
		<polygon class="st0" points="586.2,331 591.4,331 591.4,354.2 605.2,354.2 605.2,358.8 586.2,358.8 		"/>
		<path class="st0" d="M405.4,400c-0.4,0.6-1,1.3-1.7,2c-0.7,0.7-1.6,1.3-2.6,1.9c-1,0.6-2.1,1-3.3,1.4c-1.2,0.4-2.5,0.5-3.8,0.5
			c-2.1,0-4-0.4-5.7-1.1c-1.7-0.7-3.2-1.7-4.5-3c-1.3-1.3-2.2-2.8-2.9-4.6c-0.7-1.8-1-3.7-1-5.8c0-2,0.3-3.9,1-5.7
			c0.7-1.8,1.7-3.3,2.9-4.7c1.3-1.3,2.8-2.4,4.5-3.2c1.8-0.8,3.7-1.2,5.8-1.2c1.4,0,2.6,0.1,3.8,0.4c1.1,0.3,2.2,0.7,3.1,1.2
			c0.9,0.5,1.8,1.1,2.5,1.8c0.7,0.7,1.4,1.4,1.9,2.2l-3.7,3.3c-0.9-1.3-1.9-2.3-3.1-3.1c-1.2-0.8-2.7-1.2-4.4-1.2
			c-1.4,0-2.6,0.3-3.7,0.8c-1.1,0.5-2,1.3-2.8,2.2c-0.8,0.9-1.4,2-1.8,3.2c-0.4,1.2-0.6,2.5-0.6,3.8c0,1.3,0.2,2.6,0.6,3.8
			c0.4,1.2,1,2.2,1.7,3c0.8,0.9,1.6,1.5,2.7,2c1,0.5,2.2,0.8,3.5,0.8c1.2,0,2.2-0.1,3.1-0.4c0.9-0.3,1.6-0.6,2.2-1
			c0.6-0.4,1.1-0.9,1.5-1.3c0.4-0.5,0.8-0.8,1.1-1.2L405.4,400z"/>
		<path class="st0" d="M423.6,405.9c-2,0-3.9-0.4-5.7-1.1c-1.8-0.8-3.3-1.8-4.6-3.2c-1.3-1.3-2.3-2.9-3.1-4.7
			c-0.7-1.8-1.1-3.7-1.1-5.7c0-2,0.4-3.9,1.1-5.7c0.8-1.8,1.8-3.3,3.1-4.7c1.3-1.3,2.8-2.4,4.6-3.1c1.8-0.8,3.7-1.1,5.7-1.1
			c2,0,3.9,0.4,5.7,1.1c1.8,0.8,3.3,1.8,4.6,3.1c1.3,1.3,2.3,2.9,3.1,4.7c0.8,1.8,1.1,3.7,1.1,5.7c0,2-0.4,3.9-1.1,5.7
			c-0.8,1.8-1.8,3.3-3.1,4.7c-1.3,1.3-2.8,2.4-4.6,3.2C427.5,405.5,425.6,405.9,423.6,405.9 M423.6,400.9c1.4,0,2.6-0.3,3.7-0.8
			c1.1-0.5,2.1-1.2,2.8-2.1c0.8-0.9,1.4-2,1.8-3.2c0.4-1.2,0.6-2.5,0.6-3.8c0-1.3-0.2-2.6-0.6-3.8c-0.4-1.2-1-2.2-1.8-3.1
			c-0.8-0.9-1.7-1.6-2.8-2.1c-1.1-0.5-2.4-0.8-3.7-0.8c-1.4,0-2.6,0.3-3.7,0.8c-1.1,0.5-2,1.2-2.8,2.1c-0.8,0.9-1.4,1.9-1.8,3.1
			c-0.4,1.2-0.6,2.4-0.6,3.8c0,1.3,0.2,2.6,0.6,3.8c0.4,1.2,1,2.2,1.8,3.2c0.8,0.9,1.7,1.6,2.8,2.1
			C420.9,400.7,422.2,400.9,423.6,400.9"/>
		<polygon class="st0" points="443.6,377.3 448.9,377.3 462.4,397.1 462.4,377.3 467.6,377.3 467.6,405.1 462.4,405.1 448.8,385.1 
			448.8,405.1 443.6,405.1 		"/>
		<path class="st0" d="M475.4,377.3h10.4c2.2,0,4.2,0.3,6,0.8c1.8,0.6,3.4,1.4,4.7,2.5c1.3,1.1,2.3,2.6,3,4.4
			c0.7,1.8,1.1,3.9,1.1,6.3c0,2.3-0.4,4.3-1.1,6c-0.7,1.7-1.8,3.1-3.1,4.3c-1.3,1.2-2.9,2-4.7,2.6c-1.8,0.6-3.8,0.9-5.9,0.9h-10.4
			V377.3z M485.3,400.5c3.2,0,5.6-0.8,7.3-2.3c1.7-1.5,2.5-3.8,2.5-6.7c0-2.9-0.8-5.2-2.3-6.9c-1.5-1.7-4-2.5-7.5-2.5h-4.6v18.5
			H485.3z"/>
		<path class="st0" d="M506.5,377.3h5.3v16.7c0,1.1,0.1,2,0.3,2.9c0.2,0.8,0.5,1.6,1,2.2c0.5,0.6,1.1,1.1,1.9,1.4
			c0.8,0.3,1.7,0.5,2.9,0.5c1.1,0,2.1-0.2,2.9-0.5c0.8-0.3,1.4-0.8,1.9-1.4c0.5-0.6,0.8-1.3,1-2.2c0.2-0.8,0.3-1.8,0.3-2.9v-16.7
			h5.3v17.6c0,1.6-0.2,3-0.7,4.3c-0.5,1.3-1.2,2.5-2.2,3.5c-1,1-2.2,1.8-3.6,2.3c-1.4,0.6-3,0.9-4.8,0.9c-1.8,0-3.4-0.3-4.8-0.9
			c-1.4-0.6-2.6-1.4-3.6-2.3c-1-1-1.7-2.1-2.2-3.5c-0.5-1.3-0.7-2.8-0.7-4.3V377.3z"/>
		<path class="st0" d="M560.8,400c-0.4,0.6-1,1.3-1.7,2c-0.7,0.7-1.6,1.3-2.6,1.9c-1,0.6-2.1,1-3.3,1.4c-1.2,0.4-2.5,0.5-3.8,0.5
			c-2.1,0-4-0.4-5.7-1.1c-1.7-0.7-3.2-1.7-4.5-3c-1.3-1.3-2.2-2.8-2.9-4.6c-0.7-1.8-1-3.7-1-5.8c0-2,0.3-3.9,1-5.7
			c0.7-1.8,1.7-3.3,2.9-4.7c1.3-1.3,2.8-2.4,4.5-3.2c1.8-0.8,3.7-1.2,5.8-1.2c1.4,0,2.6,0.1,3.8,0.4c1.1,0.3,2.2,0.7,3.1,1.2
			c0.9,0.5,1.8,1.1,2.5,1.8c0.7,0.7,1.4,1.4,1.9,2.2l-3.7,3.3c-0.9-1.3-1.9-2.3-3.1-3.1c-1.2-0.8-2.7-1.2-4.4-1.2
			c-1.4,0-2.6,0.3-3.7,0.8c-1.1,0.5-2,1.3-2.8,2.2c-0.8,0.9-1.3,2-1.8,3.2c-0.4,1.2-0.6,2.5-0.6,3.8c0,1.3,0.2,2.6,0.6,3.8
			c0.4,1.2,1,2.2,1.7,3c0.8,0.9,1.6,1.5,2.7,2c1,0.5,2.2,0.8,3.5,0.8c1.2,0,2.2-0.1,3.1-0.4c0.9-0.3,1.6-0.6,2.2-1
			c0.6-0.4,1.1-0.9,1.5-1.3c0.4-0.5,0.8-0.8,1.1-1.2L560.8,400z"/>
		<polygon class="st0" points="575,381.9 565.6,381.9 565.6,377.3 589.7,377.3 589.7,381.9 580.3,381.9 580.3,405.1 575,405.1 		"/>
		<path class="st0" d="M388.7,422.9h5.4l10.6,27.9h-5.8l-2.4-7.1h-10.4l-2.4,7.1h-5.5L388.7,422.9z M394.9,439.4l-3.7-10.8
			l-3.7,10.8H394.9z"/>
		<path class="st0" d="M408.4,422.9h5.3v16.7c0,1.1,0.1,2,0.3,2.9c0.2,0.8,0.5,1.6,1,2.2c0.5,0.6,1.1,1.1,1.9,1.4
			c0.8,0.3,1.7,0.5,2.9,0.5c1.1,0,2.1-0.2,2.9-0.5c0.8-0.3,1.4-0.8,1.9-1.4c0.5-0.6,0.8-1.3,1-2.2c0.2-0.8,0.3-1.8,0.3-2.9v-16.7
			h5.3v17.6c0,1.6-0.2,3-0.7,4.3c-0.5,1.3-1.2,2.5-2.2,3.5c-1,1-2.2,1.8-3.6,2.3c-1.4,0.6-3,0.9-4.8,0.9c-1.8,0-3.4-0.3-4.8-0.9
			c-1.4-0.6-2.6-1.4-3.6-2.3c-1-1-1.7-2.2-2.2-3.5c-0.5-1.3-0.7-2.8-0.7-4.3V422.9z"/>
		<polygon class="st0" points="445.9,427.6 436.5,427.6 436.5,422.9 460.6,422.9 460.6,427.6 451.2,427.6 451.2,450.8 445.9,450.8 
					"/>
		<polygon class="st0" points="465.3,422.9 470.5,422.9 470.5,434.1 484.4,434.1 484.4,422.9 489.6,422.9 489.6,450.8 484.4,450.8 
			484.4,438.8 470.5,438.8 470.5,450.8 465.3,450.8 		"/>
		<path class="st0" d="M510.1,451.5c-2,0-3.9-0.4-5.7-1.1c-1.8-0.8-3.3-1.8-4.6-3.2c-1.3-1.3-2.3-2.9-3.1-4.7
			c-0.8-1.8-1.1-3.7-1.1-5.7s0.4-3.9,1.1-5.7c0.8-1.8,1.8-3.3,3.1-4.7c1.3-1.3,2.8-2.4,4.6-3.1c1.8-0.8,3.7-1.1,5.7-1.1
			c2,0,3.9,0.4,5.7,1.1c1.8,0.8,3.3,1.8,4.6,3.1c1.3,1.3,2.3,2.9,3.1,4.7c0.8,1.8,1.1,3.7,1.1,5.7s-0.4,3.9-1.1,5.7
			c-0.8,1.8-1.8,3.3-3.1,4.7c-1.3,1.3-2.8,2.4-4.6,3.2C514,451.2,512.1,451.5,510.1,451.5 M510.1,446.6c1.4,0,2.6-0.3,3.7-0.8
			c1.1-0.5,2.1-1.2,2.8-2.1c0.8-0.9,1.4-2,1.8-3.2c0.4-1.2,0.6-2.4,0.6-3.8c0-1.3-0.2-2.6-0.6-3.8c-0.4-1.2-1-2.2-1.8-3.1
			c-0.8-0.9-1.7-1.6-2.8-2.1c-1.1-0.5-2.4-0.8-3.7-0.8c-1.4,0-2.6,0.3-3.7,0.8c-1.1,0.5-2,1.2-2.8,2.1c-0.8,0.9-1.4,1.9-1.8,3.1
			c-0.4,1.2-0.6,2.4-0.6,3.8c0,1.3,0.2,2.6,0.6,3.8c0.4,1.2,1,2.2,1.8,3.2c0.8,0.9,1.7,1.6,2.8,2.1
			C507.5,446.3,508.7,446.6,510.1,446.6"/>
		<path class="st0" d="M530.5,422.9h9.2c1.8,0,3.2,0.3,4.5,0.8c1.2,0.5,2.2,1.2,3,2c0.8,0.8,1.3,1.7,1.6,2.7c0.3,1,0.5,1.9,0.5,2.8
			c0,1.8-0.4,3.3-1.1,4.7c-0.8,1.3-1.9,2.4-3.5,3.2l6.4,11.6h-5.9l-5.6-11h-4v11h-5.1V422.9z M539.8,435.5c1.3,0,2.4-0.4,3.1-1.2
			c0.7-0.8,1.1-1.7,1.1-2.8c0-1.2-0.4-2.2-1.2-2.9c-0.8-0.8-1.8-1.1-3-1.1h-4.2v8.1H539.8z"/>
		<rect x="557.2" y="422.9" class="st0" width="5.3" height="27.9"/>
		<polygon class="st0" points="577.7,427.6 568.3,427.6 568.3,422.9 592.4,422.9 592.4,427.6 583,427.6 583,450.8 577.7,450.8 		"/>
		<polygon class="st0" points="605.3,438.6 595.7,422.9 601.4,422.9 608.1,434 614.8,422.9 620.3,422.9 610.7,438.6 610.7,450.8 
			605.3,450.8 		"/>
	</g>
</g>
</svg>
