<?xml version="1.0" encoding="utf-8"?>
<!-- Generator: Adobe Illustrator 19.2.1, SVG Export Plug-In . SVG Version: 6.00 Build 0)  -->
<svg version="1.1" id="layer" xmlns="http://www.w3.org/2000/svg" xmlns:xlink="http://www.w3.org/1999/xlink" x="0px" y="0px"
	 viewBox="0 0 652 652" style="enable-background:new 0 0 652 652;" xml:space="preserve">
<style type="text/css">
	.st0{fill:#26358C;}
	.st1{fill:#0069B3;}
	.st2{fill:#36BCEE;}
	.st3{fill:#005D9E;}
	.st4{fill:#002F60;}
	.st5{fill:#FFFFFF;}
</style>
<path class="st0" d="M516.1,216.3c-40.4,0-75.8,21.8-94.9,54.3c9.6,16.4,15.2,35.5,15.2,55.8c0,20.4-5.6,39.5-15.2,55.8
	c19.1,32.5,54.5,54.3,94.9,54.3c60.8,0,110.1-49.3,110.1-110.1C626.2,265.6,576.9,216.3,516.1,216.3"/>
<path class="st1" d="M421.1,270.5c-19.2-32.5-54.5-54.3-94.9-54.3c-40.4,0-75.8,21.8-94.9,54.3c9.7,16.4,15.2,35.5,15.2,55.9
	c0,20.4-5.5,39.5-15.2,55.8c19.2,32.5,54.5,54.3,94.9,54.3c40.5,0,75.8-21.8,94.9-54.3c-9.7-16.4-15.2-35.5-15.2-55.8
	C405.9,306,411.5,286.9,421.1,270.5"/>
<path class="st2" d="M231.3,270.5c-19.2-32.5-54.5-54.3-94.9-54.3c-60.8,0-110.2,49.3-110.2,110.2c0,60.8,49.3,110.1,110.2,110.1
	c40.4,0,75.8-21.8,94.9-54.3c-9.7-16.4-15.2-35.5-15.2-55.8C216.1,306,221.6,286.9,231.3,270.5"/>
<path class="st3" d="M231.3,382.2c9.6-16.4,15.2-35.5,15.2-55.8c0-20.4-5.6-39.5-15.2-55.9c-9.7,16.4-15.2,35.5-15.2,55.9
	C216.1,346.8,221.6,365.8,231.3,382.2"/>
<path class="st3" d="M231.3,382.3L231.3,382.3c-10-16.9-15.2-36.2-15.2-55.9c0-19.7,5.3-39,15.2-55.9v0l0,0
	c10,16.9,15.2,36.2,15.2,55.9C246.5,346,241.3,365.3,231.3,382.3L231.3,382.3z M231.3,270.6c-9.9,16.9-15.2,36.2-15.2,55.8
	c0,19.6,5.3,38.9,15.2,55.8c9.9-16.9,15.2-36.2,15.2-55.8C246.5,306.8,241.2,287.5,231.3,270.6"/>
<path class="st4" d="M421.1,382.2c9.6-16.4,15.2-35.4,15.2-55.8c0-20.4-5.6-39.5-15.2-55.9c-9.7,16.4-15.2,35.5-15.2,55.9
	C405.9,346.8,411.5,365.9,421.1,382.2"/>
<path class="st5" d="M177.8,287.9h-32V386h-22.1v-98.1H92.3v-20.1h85.5V287.9z M477.8,386h45.4c13.4,0,19.2-0.2,26.8-2.8
	c14.2-5,20.3-17.1,20.3-30.6c0-18.2-11.4-28.8-24.4-31.1c6.4-1.2,11.1-3.7,14.7-8.5c3.3-4.5,4.5-10.9,4.5-16.1
	c0-12.9-8.3-23.4-20.2-27c-5.7-1.7-9.9-1.8-25.6-2h-41.4V386z M512.8,285.9c16.1,0.2,18.4,0.3,23.1,3c4.5,2.7,6.9,7.2,6.9,11.7
	c0,5.4-3.2,9.9-7.9,12.2c-4,2.2-9.6,2.3-15.1,2.3c-2.7,0.2-7.2,0.2-13.4,0.2h-6.8v-29.5H512.8z M520.8,332c7.5,0,19.9,0.2,25.3,9.7
	c1.7,3,2.2,6.2,2.2,8.9c0,5.7-2.3,10.2-5.4,12.4c-5.7,4-9.2,4-22.3,4h-21.1v-35H520.8z M337.6,316l-12.1-2.7c-10.6-2-21.6-4-21.6-14
	c0-9,10.3-14.3,22.1-14.3c17.8,0,25.6,10.5,29.8,16.5l17.4-13.9c-8.4-11-21.5-22.3-46-22.3c-27.6,0-46.4,14.3-46.4,36.5
	c0,19.4,14.5,26.6,19.8,28.7c3.6,1.5,7.3,2.3,14.8,4.2l14.1,3c10.6,2.5,11,2.7,13.6,3.7c3.7,1.5,8.8,4.1,8.8,11.6
	c0,4-1.5,10-10,13.5c-4.2,1.7-8.5,2-12.6,2c-23.5,0-32.6-12.1-35.9-17.1l-17.9,13.6c8.8,13.6,21.7,18.6,29.3,20.9
	c7.2,2,14.5,2.7,20.9,2.7c24.9,0,49.8-10.8,49.8-37.7C375.6,325.8,353.4,319.3,337.6,316"/>
</svg>
